<svg id="Capa_1" data-name="Capa 1" xmlns="http://www.w3.org/2000/svg" viewBox="0 0 367.64 406.45"><defs><style>.cls-1{fill:#191919;}.cls-2{fill:#fff;}.cls-3{fill:#f0f0f0;}.cls-4{fill:#3280ff;}</style></defs><title>logo</title><path class="cls-1" d="M258.38,32.13a169.36,169.36,0,1,1-149.12,0A183.86,183.86,0,0,0,0,200.2C0,301.72,82.3,384,183.82,384S367.64,301.72,367.64,200.2A183.86,183.86,0,0,0,258.38,32.13Z"/><path class="cls-2" d="M115.91,365.31c0-1.77,0-2.65,0-4.42-3-1.22-4.44-1.86-7.37-3.22-1.27,1.22-1.92,1.83-3.22,3-1.88-.89-2.82-1.35-4.68-2.3a201.62,201.62,0,0,0,16.42-14.74c1.33.6,2,.89,3.34,1.46a213.72,213.72,0,0,0,.27,22C118.79,366.45,117.83,366.08,115.91,365.31Zm-4.51-10.4c1.85.85,2.79,1.25,4.66,2,.09-2.85.16-4.28.33-7.11C114.42,351.89,113.43,352.91,111.4,354.91Z"/><path class="cls-2" d="M138.72,372.78c-2.33-.6-3.49-.92-5.8-1.59-1.34-3.6-2-5.41-3.1-9l-2.38,7.32c-1.82-.59-2.73-.9-4.54-1.54l6.82-19.23c2.2.78,3.3,1.15,5.52,1.85,3,1,4.59,2.14,5.32,3.57a6.47,6.47,0,0,1,.28,4.62,5.84,5.84,0,0,1-2.79,3.91,5.51,5.51,0,0,1-3.35.55C136.19,367.06,137,369,138.72,372.78Zm-6.17-19c-.67,2-1,3.05-1.66,5.09l1.14.37c1.2.38,2.55.79,3.51.05a3.18,3.18,0,0,0,1-3.28c-.4-1.11-1.67-1.5-2.86-1.88Z"/><path class="cls-2" d="M152.54,364.71c3.79.72,5.7,1,9.52,1.53l-.07.55c-1,7.17-6,10-11.91,8.83-6.64-1.27-9.8-6.46-8.24-12.63s6.4-9.09,12.2-8c4.35.83,7.6,4,7.85,8.5-1.84-.25-2.75-.38-4.58-.68-.27-1.84-1.93-3.23-4.09-3.64-3.12-.59-6.14,1-7,4.88s1.09,6.73,4.84,7.44c2.41.46,4.67-.26,5.7-2.33-2-.32-2.94-.49-4.9-.86Z"/><path class="cls-2" d="M163.63,377.4c.93-8.11,1.4-12.16,2.34-20.27,4.4.51,6.61.69,11,.9l-.2,4.08c-2.8-.13-4.2-.23-7-.48l-.34,3.73c2.75.25,4.12.34,6.87.48l-.2,4.07c-2.81-.14-4.22-.24-7-.49-.16,1.75-.24,2.63-.39,4.39,3,.27,4.5.37,7.5.52-.08,1.63-.11,2.44-.19,4.08C171.05,378.17,168.57,378,163.63,377.4Z"/><path class="cls-2" d="M192.56,358c1.69-.08,2.53-.12,4.21-.25.59,8.14.88,12.21,1.46,20.35-1.76.13-2.65.18-4.41.27-3.83-4.9-5.62-7.41-8.95-12.49,0,5.08,0,7.62,0,12.7-1.89,0-2.84,0-4.73-.06.21-8.16.32-12.24.53-20.39,1.57,0,2.35.05,3.92.05,3.18,5.09,4.9,7.59,8.57,12.51C192.92,365.65,192.8,363.12,192.56,358Z"/><path class="cls-2" d="M206.9,377.31c-.78-6.48-1.16-9.72-1.94-16.2-2.22.27-3.34.38-5.57.58l-.35-4.07a138.78,138.78,0,0,0,15-2c.28,1.61.43,2.41.72,4-2.21.4-3.31.58-5.53.9l2.35,16.14C209.72,377,208.78,377.09,206.9,377.31Z"/><path class="cls-2" d="M220.18,375.24c-1.55-8-2.32-12-3.88-20,1.67-.32,2.49-.49,4.15-.86,1.75,8,2.63,12,4.39,19.93C223,374.69,222.05,374.88,220.18,375.24Z"/><path class="cls-2" d="M236.07,350.1c1.63-.53,2.43-.81,4-1.38,2.73,7.69,4.1,11.54,6.82,19.23-1.69.6-2.54.89-4.24,1.45-5-3.7-7.43-5.63-12-9.64,1.34,4.9,2,7.35,3.36,12.24-1.84.51-2.76.75-4.61,1.21l-4.9-19.81c1.54-.38,2.3-.58,3.83-1A150.48,150.48,0,0,0,240,362.17C238.44,357.34,237.65,354.93,236.07,350.1Z"/><path class="cls-2" d="M264.47,360.7c-1.3-1.21-1.94-1.82-3.21-3-2.93,1.36-4.41,2-7.38,3.23,0,1.76.05,2.65.06,4.42-1.93.77-2.89,1.14-4.83,1.85a210.94,210.94,0,0,0,.27-22c1.34-.57,2-.86,3.34-1.46a203.31,203.31,0,0,0,16.42,14.74C267.29,359.35,266.35,359.81,264.47,360.7ZM253.76,357c1.87-.78,2.81-1.19,4.66-2-2-2-3-3-5-5.07C253.59,352.68,253.66,354.11,253.76,357Z"/><circle class="cls-3" cx="184.03" cy="183.35" r="170.23"/><path class="cls-4" d="M306.07,334.9a24.25,24.25,0,0,1-4.1-2.83c-2.26-2.22-4.29-4.55-.56-7.45,3-2.36,2.06-5.74,1.81-8.92-.34-4.26-3.32-6-7.12-3.82a38,38,0,0,1-13,4.25c-1.76.29-4.67.94-4.57-.94.09-1.61.59-4.75,4.08-5.27,4-.59,7.92-2,12.12-1.95,1.92,0,4.18-.93,4.89-2.86.54-1.49-1.49-2.32-2.49-3.32-1.74-1.72-2.62-3.4-.57-5.54a4.32,4.32,0,0,0,1.29-4.14c-1-2.77.27-4.05,2.39-5.54,4.65-3.28,4.23-8.75-.53-12-4.52-3.1-9.69-3.19-14.3-1.71s-4.64-1-3.4-3.27c3.09-5.57,1.13-7.6-4.38-8.7-2.23-.45-4.66-2.21-6.24.06-1.31,1.88,1.49,2.92,2.48,4.28,3,4.17,2.24,8.79-1.22,12.3-2.42,2.45-6.87,2.17-7.87,6.23-3.09,1.75-3.43-.48-3.43-2.57,0-2.78-.14-4.86-3.45-6.14-2.39-.93-4.66-3.23-3.33-6.69,1.2-3.13,1.59-5.49-3-6.42-4.31-.88-5.73.12-5.5,4.44.11,1.91-.62,3.88-1.1,5.79-2.87,11.23-8.9,21-14.84,30.85,3,1.58,4.43-1.45,6.6-2.07a76.08,76.08,0,0,0,6.71-12.07c.84-1.74,1.77-3.22,4-2.87,2.56.39,2.24,2.48,2.44,4.23.86,7.89.84,8-7,9.74-1.43.31-3.07-.15-3.18,2,.94,2.64,2.54,4,5.59,3.58.87-.11,2.86-.43,3,1.67a3.25,3.25,0,0,1-2,3.6,13.18,13.18,0,0,1-5.24,1.37c-3.32.09-4.15,2-2.54,4.63,1.36,2.27.94,4.22.29,6.58-2,7.32-1.3,14,5.18,19.16,1.6,1.28,2.88,2.24,3.62-.28.91-3.13,3.2-3.1,5.33-2.44,3.86,1.19,7.43-.7,11.19-.65,2.12,0,4.81-3.3,3-4.63-4.43-3.28-2.81-5.66-.55-9,1.28-1.89,1.69-4.74.26-6.57-1.7-2.18-4.17-.77-6.42,0-3.76,1.24-7.6,2.25-11.45,3.15-1.44.33-3.38.26-3.89-1.41-.66-2.17,1.62-2.23,2.84-2.58,5.66-1.65,11.33-3.36,17.09-4.54,3-.61,2.84-1.64,1.43-3.53a5.61,5.61,0,0,0-5.24-2.25c-2.45.18-4.64.1-5-3.23s2.22-3,4.13-3.64c1.25-.43,3.44.08,3.29-2.18-.11-1.82-2.37-1.59-3.11-2.41-1.3-1.45-4.64.33-4.37-2.86.37-4.45-.73-7.69-5.06-10.14-2.42-1.38-1.62-4.58.83-6.27,2.62-1.81,3,1.2,3.69,2.36,2.33,4.15,6.77,6.79,8.14,11.57,1.56,8.3,5.4.12,8.18,1.11,1.19,11.69-.05,23.44.35,35.16.18,5.19,1.53,10,2.11,15.06a2.48,2.48,0,0,0,1.66,2.23c1.62.64,1.33-.94,1.7-1.65,3.18-6.11,10.15-4.36,14.92-7.19a1.51,1.51,0,0,1,1.43.19c2.72,3.38,7,1.2,10.17,2.93a1.82,1.82,0,0,0,2.84-1A2.32,2.32,0,0,0,306.07,334.9Zm-56.44-8.38a17.9,17.9,0,0,0,2.22-.3c1.48.88,4.33-2,5.12,1.17s-2,4.42-4.48,5.41c-.75.3-1.56.49-2.34.72-1.8.52-4.15,2.17-5.33,1s-.9-4-.22-6C245.45,326,247.68,326.53,249.63,326.52Zm32-24.38c-2-.23-2.12-1.39-1.86-2.71.61-3.06,3-3.62,5.63-3.54,1,0,2.5-.36,2.38,1.54C286.25,299.66,285.38,302.57,281.66,302.14Zm-7.74-12c-.85,0-2.18.45-2.33-1a2.47,2.47,0,0,1,1-2.66c5.94-3,11.84-6.25,19.44-5.74C288.27,289.39,281.25,290.1,273.92,290.13Zm7.43,40.65c-1.5,0-1.55-1-1.57-1.91,0-1.92-.42-4.9,2.05-4.79,4.08.19,7.6-1.75,12.09-2.33C291.83,326.16,284.74,330.86,281.35,330.78Z"/><path class="cls-4" d="M220.88,333.93c-8.84,8.28-19.39,8.45-30.53,6.91-9.86-1.35-18.53-6.73-28.35-8-4.75-.61-9.55-.88-14.33-1.11-3.6-.16-6.95-3.26-6.87-6.81,0-1.67.41-2.86,2.72-2.05,4.73,1.65,8.3-1.88,11.95-3.67,2.8-1.38.3-4.84-.91-6.42-1.81-2.37-2.06-4.48-1-6.84,1.37-3.09,0-3.8-2.71-3.75-1,0-2,.18-3,.2a2.05,2.05,0,0,1-2.31-1.47c-.25-1,.67-1.63,1.33-1.86a51.6,51.6,0,0,0,14.48-8.25c2-1.6,3.65,1.37,3.93,3,.45,2.62.79,5.38-1.63,7.83-2.85,2.89-5.69,5.79-.47,10,3.27,2.62,2.38,6.55-1.28,9.71-4.05,3.5-3.61,5.38,1.62,6.14a187.75,187.75,0,0,1,27.89,5.94c1.51.46,3.29.07,5.93.07,7,1.47,14.34-1.7,21.95-2.93,1.29-.21,2.86-1,3.57.52S221.8,333.08,220.88,333.93Z"/><path class="cls-4" d="M161.49,284.08a18.07,18.07,0,0,1,11.76,2.17c-.79,6.1-3.3,11.82-2.23,18.38,1,6.11-.23,12.5.83,18.75.42,2.5,1.77,2.91,3.36,1.67,5-3.9,9.38-2.81,14.46.28,4.68,2.84,7.74.84,9.67-4.44,1.41-3.83,2.19-7.38.44-11.38a8.74,8.74,0,0,1,.11-6.36c1.38-3.66,1.2-7.46,1.31-11.24.05-1.92-.76-3.13-2.3-4.53-4.31-3.92-8.47-1-12.64-.26-1.74.3-4,1.8-4.7-.38-.48-1.45,1.64-2.37,3.62-2.94,7.37-2.11,14.75-4.36,21.1-8.92-3.23-6.26-8.31.41-12.55-1.4,2.49-3,5.91-4.87,5.7-8.88-.1-1.89-.72-3.73-3-4-2.15-.2-2.62,1.19-3,3.07a25.67,25.67,0,0,1-5.29,10.85c-.69.85-.67,3.1-2.54,2a2.73,2.73,0,0,1-1.19-3.86,3,3,0,0,0-1-4.37,35.38,35.38,0,0,0-7.89-4c-2.08-.63-4.57.2-3.74,3.29.9,3.34,1.94,7,5.79,8.08,2.14.59,2.07,1.71,1.91,3.21-.2,1.86-1.5,1.79-3,1.7-1.85-.11-4-1.25-5.22,1.31A11.34,11.34,0,0,1,159.82,277c-1.77-2.44-4.38-3.43-6.88-4.53-1.69-.75-3.87-.8-3.44,2.13C150.1,278.65,157.44,284.67,161.49,284.08Zm28.79,34.06c-1.66.1-3.32,0-5,0v-.06c-1.66,0-3.32,0-5,0-1.28,0-2.28-.28-2.25-1.89,0-1.27.24-2.15,1.8-2.4,3.41-.55,6.77-1.46,10.19-1.91,1.07-.15,3.39-1.63,3.3,1.08C193.3,315,193.72,317.94,190.28,318.14Zm-12-12.56c3.81-2.8,8.21-2.54,12.22-3.61a2,2,0,0,1,1.71.55c.21.31-.12,1.24-.47,1.67C190.46,305.76,180.65,306.92,178.26,305.58Zm13.51-12.89c.86.22,1.65.54,1.62,1.53,0,.58-.47,1.66-.64,1.66-5.35-.66-9.57,4.49-15.16,3.09C179.84,295.58,188.47,291.84,191.77,292.69Z"/><path class="cls-4" d="M111.46,319.46c-5.18-2.84-2.78-6.23-1.61-9.49s-.35-5.47-2.44-7.44c-1.8-1.7-3.51-2.17-6.52-1.35-6.12,1.67-11.67,7.21-19.09,3.11-2.3-1.27-4.5.76-2.45,4a12.87,12.87,0,0,1,1.07,12.29c-.87,2.25-.79,4.89-.93,7.37a3.21,3.21,0,0,0,2.76,3.56c1.39.34,2.94.62,3.51-.85,2.92-7.41,9.14-7.08,14-6.79,4,0,6.7.19,9.31-.06C111.86,323.54,113.38,320.51,111.46,319.46Zm-10.36-5.88c-1.49,1.82-5.72,3.53-9.35,3.56-1-.18-2.55.5-2.9-1A3.41,3.41,0,0,1,90.78,312c3-1.31,6-2.43,9-3.64a1.32,1.32,0,0,1,1.84,1A4.3,4.3,0,0,1,101.1,313.58Z"/><path class="cls-4" d="M85.39,282.65a5.24,5.24,0,0,1-2.34,5.68c-1.58.92-2.46-1.63-3.7-2.52-6.5-4.63-8.58-11.22-5.56-16,1.35-2.11,3.44-1.89,3.6-.18.46,4.82,4.28,6.9,7,9.76A2.94,2.94,0,0,1,85.39,282.65Z"/><path class="cls-4" d="M129.71,302c-2.21,8-.18,16.38-2,24.44-.83,3.66-1.46,7.35-4.69,9.83-5.18,4.84-6.48,4.81-11.31-.08-2.4-2.42-4-5.81-7.93-6.42a1.33,1.33,0,0,1-1.08-1.88,2.45,2.45,0,0,1,2.77-1.63c3.74.5,7.49,1,11.19,1.72,2.49.49,3.63-.55,3.45-2.79-.71-8.83,1.2-17.45,1.88-26.17.41-5.31-1.38-6.42-6.55-5.3-12.59,2.73-25.19,5.48-37.82,8-4.46.91-6.62,3-6.16,7.82.4,4.28.11,8.62.15,12.93,0,4.14,0,8.22-2,12.06-.81,1.55-1,4.14-2.93,3.92-1.59-.17-2.46-2.52-2.71-4.33-.88-6.41-2.13-12.75-1.91-19.31.17-4.74.84-9.56-1.3-14.25-.94-2.06.31-4.64,1.34-6.59s2.54-.61,3.43.65c2.33,3.3,4.91,3.36,8.6,1.85,4.54-1.86,9-4.17,14.17-4.45,2.24-.13,3-1.65,3.21-4.11.64-8-.6-15.88-1.45-23.79-.19-1.81-2.16-5.22,1.06-5.26,2.49,0,6.1,1.64,6.49,5.3a63.22,63.22,0,0,1,.41,11.9c-.35,4.25,2.45,7.84,1.92,12-.12.88.59,1.58,1.63,1,4-2.17,8.6-1.36,12.88-2.8C123.86,283.14,131.53,291.27,129.71,302Z"/><path class="cls-4" d="M117.32,273.06c-2.73,3.9-6.91,6.05-10.48,8.94-.08.15-.12.35-.24.43-1.48,1-2.54,4.05-4.35,2.7s1.06-2.92,1.58-4.51a6.54,6.54,0,0,1,1-1.58c1.87-2.75,3.67-5.42,3.31-9.11-.17-1.66.3-3.87,2.71-4.06,2.24-.17,5-1.24,6.48,1.08A5.29,5.29,0,0,1,117.32,273.06Z"/><path class="cls-4" d="M313.51,105.77c-6.39-3.32-12.92-6.09-20.68-6.27,6.56-5.63,10.63-12.47,13.75-20,1.09-2.62.51-3.74-1.85-5.08-18.14-10.29-37.58-16.55-58.36-17.81-5.7-.35-7.94-2.51-9-7.35a11.46,11.46,0,0,0-.78-2.36c-8.26-17.66-20-32.66-34.5-45.63-2-1.81-2.89-1.49-4.75,0a46.76,46.76,0,0,0-14.78,19.87c-3.19-7.75-8.59-13.29-14.14-18.74C166,0,164-.72,161.57,2.68A63.42,63.42,0,0,1,154,11.24c-11.84,11.53-19.91,25.59-25.16,40.93-2,5.93-4.81,6.35-9.46,6.3C98.79,58.26,80.67,66.15,63,75.54c-1.48.79-2.54,1.72-1.74,3.52,2.93,6.68,5.58,13.52,11.58,18.27.92.73,2.87.85,2.23,2.77a2.76,2.76,0,0,1-3.32,1.63c-7.56-1.16-13.27,3.33-19.5,6.2-2.46,1.13-2.93,2.71-1.43,5.19,2.55,4.23,4.71,8.69,7.18,13,7.62,13.27,16.5,25.49,29,34.67,3.4,2.49,7.33,4.68,5.12,10.28-3,7.59-3.52,15.69-4.25,23.74-1.16,12.74,1.5,25.18,2.65,37.74.15,1.6.48,4.48,3.23,4.19,6.9-.72,14-1,19.93-5.38,1.14-.84,2.47-2.68,3.66-1.89,1.6,1.06,1,3.26.63,5.05-1.12,5.82-.2,11.59.53,17.36.49,4,2.6,5.19,6.56,4.47,20.9-3.79,40.7-10.28,58-23.14,2.07-1.54,3.6-1.08,5.34.22,5.59,4.17,11.85,7.17,18,10.33,13.32,6.84,28.11,8.44,42.41,11.73,1.59.36,2.91-.06,3.13-2.17.76-7.32,3.83-14.56.49-22-.41-.91-.92-2.47.31-3.12a3.38,3.38,0,0,1,2.78.57c6.55,4.62,14.14,5.21,21.73,6.09,2.28.27,2.71-.52,2.66-2.21-.25-7.26,1.68-14.28,2.39-21.43a112.12,112.12,0,0,0-2.59-38.41c-1.16-4.71-3.05-8,2.24-12.25,15.4-12.42,25.93-28.76,34.66-46.42C319,109.29,317.17,107.68,313.51,105.77ZM299,115.86c-3.74,11.66-8.55,22.73-15.74,32.75-3.13,4.37-7,8-10.66,11.8-1.9,2-2.63,3.85-1.76,6.66,4.52,14.65,2.65,29.11-1.75,43.43-.14.46-.55.84-.71,1.3-3.29,9.63-3.28,9.63-13.12,7.17-1.1-.28-2.2-.56-3.32-.73-8.22-1.22-8.62-1.18-8.34,7.27.12,3.77-1.38,7.09-1.35,10.7,0,2-1.32,2-2.71,2H230c-14.94.28-28.81-3.35-41.38-11.55a4.94,4.94,0,0,0-6-.07c-15.19,10.22-32.13,13.42-50.13,12.85-3.38-.11-4.74-1.43-4.56-4.28.28-4.54-1.58-8.77-1.44-13.28.09-2.55-.78-3.94-4.05-2.91-4.68,1.48-9.6,2.19-14.41,3.31-2.31.54-3.5,0-4.4-2.48-6.13-16.59-9.22-33.49-5.59-51.1a7.81,7.81,0,0,0-2.45-8c-6.07-5.65-11.7-11.7-15.81-19a121.73,121.73,0,0,1-10.68-25.86c-.65-2.25.22-3,1.91-3.74,4.68-2.06,9.28-4.32,14-6.16,2.3-.89,2.87-1.49,1.44-3.79-2.64-4.28-4.84-8.85-7.4-13.19-1.36-2.31-1.78-3.58,1.09-5.47,8.69-5.73,17-11.91,27-15.48a81.13,81.13,0,0,1,19.84-4.08c2.81-.28,4.49-.86,5.53-3.77,6.21-17.41,18.59-29.73,33.41-40,2.07-1.45,3.16-1.22,4.43.61,2.86,4.14,7,7.1,10.17,10.91,2.39,2.87,3.79,1.54,5.37-.31a117.74,117.74,0,0,0,7.8-9.64c2-2.91,3.6-3.56,6.8-1.35,14.21,9.81,26.55,21.22,33.62,37.41,1.13,2.6,2.79,4.45,5.83,4.67,17.09,1.21,31.76,8.41,45.4,18.24,5.54,4,5.7,4.31,2.1,10.45-1.92,3.28-3.95,6.49-6,9.7-1.19,1.88-1.39,3,1.27,4,4.9,1.86,9.57,4.34,14.38,6.45C299.5,112.2,299.75,113.46,299,115.86Z"/><path class="cls-4" d="M160.43,160.09c4.72-3.49,5-8.56,4.47-12.79-.53-4.42-.19-9-1.38-13.32-.47-1.7-.73-4,.66-5.21,1.78-1.56,3.28.68,4.85,1.32,3.6,1.48,5.24,4.22,5.39,8.15.38,9.92,1,19.84,1.43,29.76a11.17,11.17,0,0,1-.14,4c-1.05,3-1,7.68-4.69,8-3.22.3-3.65-4.06-4.59-6.71-1.16-3.27-2.59-4.91-6.48-3.79-2.64.76-5.44,1.18-8.16,1.82-4.74,1.12-7.66,3.58-7.83,8.7-.08,2.45-1.36,4.47-3.74,4.55s-3.45-2.25-4-4.39a28,28,0,0,1-.74-10.42c1-9.3.8-18.62.69-28,0-2.55.34-3.06,3-2.25,5.48,1.64,5.87,6.24,6.55,10.51.49,3.08,0,6.32.14,9.47.08,1.39-.94,3.84,1.81,3.72,2-.08,3.74-1,3.69-3.73-.12-5.82.12-11.64-.09-17.46-.1-2.8,1.74-6.21-.11-8.17s-5.19.47-7.93-.08a19.58,19.58,0,0,0-4,.06c-7.76.08-8.41.53-8.62,8.41-.28,10.47-.64,21-.61,31.41s-1.61,20.57-1.4,30.89c.07,4-2.15,4.26-5.18,3.59-9.45-2.06-14.52-10.9-11.81-20.18a56.35,56.35,0,0,0,2.55-16.14c-.07-13.17,0-26.33,0-39.49,0-5.65.49-11.27.88-16.9.75-10.88.78-21.93-6.51-31.32-1.07-1.38-2-3.24-.49-5s3.4-.93,5-.11c4.28,2.18,8.89,4,12.62,6.92,5,3.94,5.49,10.22,6.14,16.12.81,7.33-1.19,14.52-1.18,21.83,0,6.28,1.07,7,6.91,4.27,8.14-3.73,16-7.56,20.26-16.32,2.73-5.65,2.48-11.87,4.27-17.66a1.48,1.48,0,0,0-1.23-1.86,2.6,2.6,0,0,0-2,1.2c-2.33,4.58-4.54,9.21-6.73,13.86a5.86,5.86,0,0,0-.19,2c-.11,1.5,3.37,3.25.18,4.32-2.32.77-5.47,1.44-7.42-1.05-3.66-4.68-7.12-9.52-10.43-14.46-.53-.8-1.63-2.41-.29-3.63s2.31.13,3.42.78c2.72,1.59,5.71,2.77,8.23,4.61s3.05,1.54,3.83-1.4a21.1,21.1,0,0,1,10.76-13.6c4.78-2.56,9.14-2,12.17,1.29,3.76,4.08,4.11,7.33.93,12.47-2.42,3.93-5.2,7.64-7.77,11.48-1.46,2.18-1.61,3.67,1.84,3.35,2.14-.19,4.32,0,6.48,0,2.49,0,4.15,1.21,4.56,3.59.36,2.08-1.33,2.87-3,3.48-3.72,1.38-7.28,3.11-10.89,4.72-8.4,3.75-7,1.49-6.62,10.71A145.17,145.17,0,0,0,160.43,160.09Z"/><path class="cls-4" d="M199.78,103c-.24,12,.48,24-.13,35.95-.33,6.62-1.86,13.37-.74,19.83s.66,12.9,1,19.33c.56,12.56-6,21.8-14.52,30.09a3.84,3.84,0,0,1-3.57,1.11c-1.15-.16-2.29-.42-3.43-.67-3-.68-6.71,1.29-9.13-.85-5.42-4.77-10.34-10.12-15.91-15.68,5.72-1.74,10.54.05,15.35.11,9.48.13,11.27-1,13.9-10.26,1.71-6,1.13-12.24.53-18.34a227.86,227.86,0,0,1,0-39.7c1.06-14.19,2.9-28.5-.69-42.65-1.28-5.08-3.46-6.23-8.56-5.65-6.47.74-11.75,4.43-17.4,6.94-11.8,5.24-22.88,2-34.13-1.22-.87-.25-2.43-.66-2.13-2.3.27-1.43,1.42-1.67,2.62-1.84,5.39-.75,10.81-1.36,16.17-2.3,11.43-2,21.44-7.59,31.59-12.79,13.41-6.87,16.21-6.49,27.46,3.93,2.06,1.65,4.48,3,5.06,5.94,1.44,1.77,1.07,3.78.37,5.58C200.21,85.8,200,94.44,199.78,103Z"/><path class="cls-4" d="M237.37,149.77c-.86-16.74,1.13-37.18.92-57.65a18.37,18.37,0,0,0-3.86-10.89c-1.52-2.15-3.71-4.4-2.06-7.17s5.06-2.86,7.62-2.59a43.23,43.23,0,0,1,16.42,5.19c3.65,2,4.6,5.36,2.86,9-2.62,5.38-3.18,11-3.56,16.86-1.5,23.56-1.77,47.13-1.86,70.71,0,6,1.05,11.91.81,17.92a40.74,40.74,0,0,1-.85,7.42c-1.8,8-7.23,11.22-15.14,8.91a67.84,67.84,0,0,1-24.24-13c-1-.85-2.28-1.72-2-3.23.35-1.78,2-1.37,3.28-1.52a50.38,50.38,0,0,1,12.39.21c7.61.94,9.23-.51,9.25-7.89C237.39,172.5,237.37,163,237.37,149.77Z"/><path class="cls-4" d="M220,100c5-.71,7.69-4.32,12.45-3.57-5.19,5.16-9,10.77-10.72,17.31-3.42,13-5.38,26.19-2.69,39.71,1.62,8.1,3.52,16.2,2.8,24.61-.15,1.74-.21,3.43-1.84,4.25-1.84.92-3.47.05-5-1.15-7.72-6-10.58-14.55-10.68-23.61-.19-16.6-1.84-33.24-.07-49.83,1.21-11.37,3.14-22.62,11.07-31.71.89-1,1.3-2.15,3-.82,3.55,2.74,6.06,8.72,5,13.15-.44,1.93-1,3.84-1.5,5.75C221.44,95.83,222,97.72,220,100Z"/><path class="cls-1" d="M56.19,351.22c2.93,2.47,4.42,3.65,7.43,5.95l-.3.39c-3.9,5.15-9.34,4.84-13.83,1.05-5.06-4.26-5.59-10-1.71-14.11s9.27-4,13.8-.19c3.39,2.87,4.81,7,3.07,10.64-1.45-1.11-2.17-1.68-3.59-2.82.55-1.58-.28-3.51-2-4.93-2.42-2-5.68-2.28-8,.35s-1.89,5.88,1,8.3c1.85,1.56,4.06,2.11,5.81,1-1.52-1.21-2.28-1.83-3.78-3.09Z"/><path class="cls-1" d="M64.9,358.83c3.43-4.62,8.67-5.1,13.5-1.88s6.3,8.24,3.39,13.16-8.45,6-13.77,2.42S61.52,363.38,64.9,358.83Zm13.2,9c1.85-3,.8-6-1.82-7.74s-5.79-1.55-7.82,1.32-1.08,6.14,1.66,8S76.24,370.83,78.1,367.84Z"/><path class="cls-1" d="M78.23,378.25c.74-1.28,1.11-1.91,1.86-3.19l.08.06a6.33,6.33,0,0,0,2.15,1.94c2.79,1.57,3.63,0,4.49-1.57l5.39-9.91c1.45.78,2.17,1.17,3.63,1.92l-5.21,10.12c-.83,1.62-3.29,6.42-9.63,2.86A10.12,10.12,0,0,1,78.23,378.25Z"/><path class="cls-1" d="M93.62,379.43,98.77,369c1.46.73,2.2,1.08,3.68,1.77-1.94,4.14-2.9,6.22-4.83,10.36-.84,1.79-.75,3.42,1.66,4.49s3.72.07,4.49-1.75l4.47-10.52c1.5.63,2.25.94,3.75,1.54l-4.31,10.81c-1.6,4-5.27,5.29-9.87,3.24S91.71,383.3,93.62,379.43Z"/><path class="cls-1" d="M129.16,399.62c-2.15-.56-3.22-.85-5.36-1.47-1.27-3.23-1.87-4.85-3-8.09-.83,2.61-1.25,3.92-2.09,6.54-1.68-.53-2.53-.81-4.2-1.39L120.43,378c2.09.71,3.13,1.05,5.23,1.7,2.89.9,4.36,2,5.07,3.27a5.53,5.53,0,0,1,.31,4.13,5.06,5.06,0,0,1-2.57,3.47,5.23,5.23,0,0,1-3.11.46C126.79,394.48,127.55,396.2,129.16,399.62Zm-6-17c-.58,1.82-.87,2.73-1.46,4.55l1.08.34c1.12.35,2.39.73,3.27.08a2.29,2.29,0,0,0,.89-1.33,2.17,2.17,0,0,0,0-1.6c-.39-1-1.59-1.36-2.71-1.71Z"/><path class="cls-1" d="M135.07,401.07l2-8.48c-1.91-4.34-2.79-6.52-4.4-10.88,1.85.49,2.78.73,4.64,1.18,1,2.71,1.47,4.06,2.55,6.76,2.1-2,3.13-3,5.13-5.09,1.88.36,2.82.53,4.71.85-3.28,3.3-5,4.92-8.51,8.07L139.37,402C137.65,401.65,136.79,401.46,135.07,401.07Z"/><path class="cls-1" d="M149.15,397.13,151,385.64c1.58.25,2.38.37,4,.59-.63,4.53-1,6.79-1.58,11.32-.27,2,.27,3.48,2.85,3.8s3.52-1,3.73-3c.47-4.55.71-6.82,1.19-11.37,1.59.17,2.39.24,4,.38-.39,4.64-.58,7-1,11.6-.36,4.29-3.45,6.59-8.37,6S148.46,401.39,149.15,397.13Z"/><path class="cls-1" d="M172.23,400c1.77.08,2.66.1,4.43.14,0,2,1.46,3,3.52,3,1.43,0,2.78-.5,2.76-2.13,0-2-2.74-2.11-5.35-2.82-2.27-.61-4.63-1.68-4.5-5,.15-4,3.46-5.54,6.63-5.53s6.6,1.59,6.73,5.71c-1.61.05-2.42.07-4,.08a2.63,2.63,0,0,0-2.87-2.53c-1.36,0-2.31.59-2.33,1.82,0,1.74,1.93,2,4.08,2.43,2.72.56,5.78,1.45,5.91,5.27.15,4.47-3.4,5.95-7.19,5.94C175.71,406.44,172,404.46,172.23,400Z"/><path class="cls-1" d="M190.47,406c-.36-7.27-.54-10.91-.89-18.18,1.59-.08,2.39-.13,4-.24l.5,7c3-.21,4.53-.35,7.54-.68-.31-2.78-.46-4.17-.77-6.95,1.59-.17,2.39-.27,4-.48l2.4,18.05c-1.75.23-2.62.33-4.36.53-.34-3-.5-4.52-.84-7.54-3.07.34-4.61.48-7.69.7.22,3,.32,4.53.54,7.56C193.1,405.81,192.22,405.86,190.47,406Z"/><path class="cls-1" d="M208.82,395c-.84-5.71,2.35-9.72,7.84-10.81s10,1.47,11.39,7-1.69,10.16-7.75,11.37S209.65,400.59,208.82,395ZM224,392.13a5.59,5.59,0,1,0-4.39,6.69A5.32,5.32,0,0,0,224,392.13Z"/><path class="cls-1" d="M233.2,399.26l-4.72-17.58c1.88-.5,2.82-.77,4.69-1.32,3.32-1,5.53-.91,7.39-.16a9.26,9.26,0,0,1,5.08,5.67,8.75,8.75,0,0,1-.1,6.75c-1,2.16-3.11,4-7.19,5.19C236.3,398.42,235.27,398.71,233.2,399.26Zm3.18-4.67,1-.29c2.59-.76,3.7-1.79,4.21-3a6.45,6.45,0,0,0-2.69-7.49c-1.05-.53-2.33-.65-4.63,0l-.91.27C234.54,388.3,235.16,390.4,236.38,394.59Z"/><path class="cls-1" d="M247.64,385.09c-2-5.41.33-10,5.55-12.24s10.2-.69,12.72,4.44.38,10.33-5.37,12.79S249.6,390.41,247.64,385.09Zm14.4-6a5.67,5.67,0,1,0-3,7.48A5.36,5.36,0,0,0,262,379.11Z"/><path class="cls-1" d="M277.65,360.43c-.5,4.45-.81,6.68-1.57,11.17,4.3,1.88,6.49,2.77,11,4.41-1.88,1.17-2.83,1.74-4.74,2.84-4-1.7-6-2.6-9.8-4.49l4.13,7.66c-1.59.86-2.39,1.28-4,2.09l-8.26-16.22c1.46-.74,2.18-1.12,3.63-1.9,1.54,2.87,2.31,4.31,3.86,7.18.61-4,.87-6.05,1.27-10.05C275,362.07,275.86,361.53,277.65,360.43Z"/><path class="cls-1" d="M300.24,367.13c-1.36-.81-2-1.23-3.4-2.06-2.49,1.79-3.75,2.66-6.29,4.35.31,1.56.45,2.34.74,3.91-1.64,1.07-2.47,1.59-4.13,2.62-1-7.95-1.61-11.89-3.16-19.64,1.17-.79,1.75-1.19,2.9-2,6.7,4.18,10.16,6.16,17.29,9.86C302.62,365.38,301.83,366,300.24,367.13ZM289.84,366c1.6-1.08,2.4-1.63,4-2.76-2.17-1.37-3.25-2.07-5.37-3.5C289,362.18,289.31,363.44,289.84,366Z"/><path class="cls-1" d="M303.86,340.79c1.27-1.14,1.9-1.72,3.15-2.89l12.46,13.27c-1.29,1.2-1.93,1.8-3.23,3-5.67-1-8.45-1.6-13.89-3l7.2,8.75c-1.43,1.18-2.15,1.76-3.6,2.9L294.7,348.49c1.23-1,1.84-1.46,3.06-2.46,5.35,1.47,8.08,2.11,13.66,3.2Z"/></svg>