<?xml version="1.0" encoding="utf-8"?>
<!-- Generator: Adobe Illustrator 23.0.0, SVG Export Plug-In . SVG Version: 6.00 Build 0)  -->
<svg version="1.1" id="Capa_1" xmlns="http://www.w3.org/2000/svg" xmlns:xlink="http://www.w3.org/1999/xlink" x="0px" y="0px"
	 viewBox="0 0 110.1 99" style="enable-background:new 0 0 110.1 99;" xml:space="preserve">
<style type="text/css">
	.st0{fill:#FF1746;}
	.st1{fill:#3280FF;}
</style>
<g>
	<path class="st0" d="M85.1,9.6c-0.1,0.7-0.6,4.2-2.3,5.5c-1.9,1.4-6.7,12.6-6.7,12.6l0,0c0.4-1.5,0.9-3,1.8-4.3c0,0,4-9.1,5.5-10.3
		C84.4,12.4,84.9,10.7,85.1,9.6z"/>
	<path class="st0" d="M99.7,10.8c-0.2,0.3-0.4,0.5-0.7,0.7l0,0c-0.8,0.7-1.7,1.2-2.8,1.6c-0.1,0-0.3,0.1-0.4,0.1
		C97.2,12.5,98.5,11.7,99.7,10.8C99.7,10.7,99.7,10.7,99.7,10.8C99.7,10.7,99.7,10.8,99.7,10.8z"/>
	<g>
		<path class="st1" d="M80.5,12.4c-5.6,0.1-11.2,1.3-16.4-2.6c-2.9-2.2-7.4-1.6-10.7-1c-6.8,1.2-13.6,1.7-20.5,2.7
			c-3.5,0.5-7,0.6-10,2.8c-2.3,1.7-4.7,0.7-5.1-2.1c-0.3-2.2-1.4-3.8-2.5-5.5c-1.9-2.9-4.9-3.1-7.8-1.4c-2.7,1.6-3.8,3.8-2.2,7.1
			c1.2,2.4,1.8,4.5,4.9,5.5c2.4,0.7,2.8,3.4,2.2,6c-1.8,7.8-1.2,9.1,5.4,13.7c1.6,1.1,4.7,2.2,4.1,4c-0.8,2.4-3.6,3.5-6.5,3.4
			c-1.5-0.1-2.9,0-5.6,0c3.2,2,5.7,2.2,7.8,1.5c2.9-0.9,6.2,0.8,8.8-1.8c0.6-0.6,2.5,0.2,2.9,1.9c-0.7,2.1-1.4,4.1-1.1,7.1
			c-2,0.8-1.6,2.6-2.1,3.8c-0.4,1.4-0.8,2.8-1.2,4.2c-1,1.4-1.4,2.9-1.6,4.9c2.2-0.9,1.9-2.7,2.4-4c0.4-1.4,0.8-2.7,1.2-4.1
			c0.8-1.4,1.6-2.8,1.3-4.8c1.5-2,1.9-3.6,2-5.2c0.6-0.3,0.5-2.6,1.8-0.8c0.7,1,1.2,2.4,1.3,3.7c1.2,10.7,2.4,21.3,3.5,32
			c0.8,7.5-4.1,10.2-10.3,12.3c4.3,0.6,8.5,1.2,12.7,1.7c1.6,0.2,1.9-1,1.6-2.4c-0.6-3.1,0.1-6.1,0.8-9.2c0.4-1.7,0.4-3.4,2.8-3.9
			c2.1-0.4,1.7-2.5,1.7-4.1c0.1-7.4,0.5-14.7,1.6-22c0.1-1-0.2-2.6,1-2.6c4.7,0,3.2-3.6,3.6-6c0.4-3.2,0.6-6.4,1-9.7
			c0.1-0.8,0.3-1.8,0.8-2.4c4.2-5.7,14.7-9.3,22-7.5l0,0c0,0,4.8-11.2,6.7-12.6c1.7-1.3,2.2-4.8,2.3-5.5l0,0c0-0.1,0-0.1,0-0.1
			C84.8,10.7,82.6,12.3,80.5,12.4z M52.3,21c-3.7,1-7.4,2-11.1,2.9c-2.5,0.6-4.3-0.3-4.7-3.3c4.8-0.3,9.4-1.7,14.1-1
			C51.1,20.2,52.7,19.3,52.3,21z"/>
		<path class="st0" d="M94.9,17.4c0.6,0.9,1.2,1.9,1.6,2.9c1.9,4.5,1.9,9.6,4,14c0.4,0.8,0,1.9,0.1,2.9c0.2,3.8-3.2,4.7-5.5,5.8
			c-2.1,1-2.7-1.7-3.8-2.9c-0.2-0.2-0.2-0.5-0.4-0.6c-0.7-0.6-1.6-1.6-2.4-0.8c-0.7,0.7-0.7,1.9,0.5,2.8c3.4,2.6,3.4,6.7,4.4,10.3
			c0.4,1.6-0.1,2.5-1.9,2.4c-2.3-0.1-2.9,1.4-2.7,3.3c0.1,1.6-0.1,3.1-0.3,4.7c-0.6,3.8,0,7.4,2.8,10.3c1.3,1.3,2.6,2.7,3,4.4
			C95.8,83.1,98,89,100.4,95c0.6,1.6,0.3,3-1.6,3.3c-5,0.8-10,1-14.9-0.7c-0.8-0.3-1.1-0.9-1.1-1.7c0.1-0.8,0.9-0.7,1.4-0.7
			c2.7-0.2,5.1-1.3,7.4-2.6c2.1-1.2,1.2-3.2,0.8-4.8c-0.2-0.8-0.8-1.7-1.8-1.1c-3.6,2.6-4.5-0.5-6-2.7c-0.8-1.1-0.6-3.2-3-2.9
			c-3.7,0.4-7.2-1.7-11-1.3c0.9-0.7,1.9-0.8,2.6-1.3c1.7-1.1,4.3-1.4,4.1-4.4c-0.2-2.8-2.7-2.4-4.3-3c-1.7-0.6-3-1.1-2.9-3.1
			c0.3-5.3,0-10.5,1.2-15.8c0.6-2.3,2.1-4.9,0.3-7.4c-3.1,5-6.1,10-9.2,15c-0.4,0.6-0.6,1.7-1.8,1c-0.8-0.5-0.8-1.1-0.4-1.8
			c3.3-4.9,5.4-10.7,9.9-14.9c1.8-1.5,3.9-2.9,2.3-5.8c-0.2-0.4-0.1-1.3,0.2-1.7c2.2-2.5,2.6-5.7,3.5-8.8l0,0c0,0,4.8-11.2,6.7-12.6
			c1.7-1.3,2.2-4.8,2.3-5.5l0,0c0.1-0.6,0.2-1.1,0.2-1.1c1.1-4.5,4.3-6.2,8.1-7.8c1.6-0.8,2.6-1,3.8,0c2,1.7,4.4,3.2,4.1,6.3
			c-0.2,1.5-0.7,2.7-1.6,3.6h-0.1l0,0c-1.1,1-2.4,1.8-3.9,2.4c-0.2,0.1-0.4,0.1-0.5,0.2C93.5,14.3,93.7,15.6,94.9,17.4z"/>
		<path class="st1" d="M103.2,16.5c-2.5,1.5-4.8,2.8-6.7,3.8c-0.4-1-0.9-2-1.6-2.9c-1.3-1.8-1.4-3.1,0.4-4c0.2-0.1,0.3-0.1,0.5-0.2
			c1.4-0.6,2.7-1.5,3.9-2.4l0,0c0,0,0,0,0.1,0C100.6,10.9,109.5,12.6,103.2,16.5z"/>
	</g>
</g>
</svg>
