<?xml version="1.0" encoding="utf-8"?>
<!-- Generator: Adobe Illustrator 23.0.0, SVG Export Plug-In . SVG Version: 6.00 Build 0)  -->
<svg version="1.1" id="Capa_1" xmlns="http://www.w3.org/2000/svg" xmlns:xlink="http://www.w3.org/1999/xlink" x="0px" y="0px"
	 viewBox="0 0 110.1 99" style="enable-background:new 0 0 110.1 99;" xml:space="preserve">
<style type="text/css">
	.st0{fill:#FF1746;}
	.st1{fill:#3280FF;}
</style>
<g>
	<path class="st0" d="M108.7,94.8c-1.6-1.1-1.5-2.2-1.3-3.7c0.6-4.8,0.9-9.9,2.1-14.4c2-7.6-2.7-12-6.1-17c-1.5-2.2-2.6-4.2-3.7-6.6
		c-5.2-11-0.6-20.4,3.6-30.1c1.7-3.8,3.2-7.6,4.5-11.5c1.7-4.9-3.2-10.5-8.3-9.5c-3.5,0.7-6.7,1-9.9-1.2c-2.4-1.6-9.9-0.1-12.1,1.9
		c-1.2,1.1-1.2,2.2-0.1,2.9c4.1,2.8,2.1,7.2,2.9,10.8c0.3,1.3-1.5,2.4-3.2,2.3c-3.4-0.2-6.5,0.6-9.7,2.1c-0.9,0.5-1.8,0.6-2.7,0.5
		c0.1,0.2,0.1,0.3,0.1,0.3c-1.3-0.5-9.3,2.4-9.8,2.5l0,0c-0.7,0.2-1.5-0.1-2.2-0.2c-0.5-0.1-1-0.1-1.5-0.1c3.2,0.4,5.8,2.5,7.9,5.8
		c1.5,2.3,4.6,2.6,7.2,3.1c3.3,0.6,5.4,2.2,5.8,5.7c0.3,2.8,1,5.3,3.1,7.6c1.6,1.9,1.4,4.6-1,6.6c-9.8,8.2-16.2,19.1-22.8,29.8
		c-0.4,0.7-1.1,1.5-0.5,2.4c3.7,5.4-0.9,6.9-4.2,9c-1.2,0.7-2,1.5-2.5,3c2.1,0.9,4,0.6,5.6-0.5c1.8-1.2,3.6-2,5.8-1.5
		c0.5,0.1,1.6-0.1,1.6-0.3c0.4-3.4,4.5-3,5.8-5.8c3.8-8.8,11.2-14.8,17.6-21.5c2.4-2.5,5.7-1.7,8.4-1.2c2.7,0.4,1.5,3.7,2.6,5.8
		c0.9-0.1,0.7-3.9,2.7-1c1.9,2.6,4.1,4.3,3.5,8.6c-0.5,4.1,2,8.7,0.8,13.4c-0.3,1,8.9,6.7,9.9,6.3C110.9,97.8,110.2,95.9,108.7,94.8
		z M91.7,16.4c-1.1,0.4-2-1.3-1.6-2.5c0.7-2.2,1.8-4.2,3.4-7.7c0.9,3.7,5.2,2.6,4.6,5.4C97.4,14.4,94.2,15.4,91.7,16.4z"/>
	<path class="st0" d="M65.8,10c-0.2,0.1-0.4,0.1-0.6,0.2c-2,0.7-4.1,1.4-6.1,2.2c1.2-1.2,1.3-4.3,0.8-6.5c-0.3-1.2-0.3-3.4,1.4-3.7
		c1.8-0.4,2.1,1.5,2.6,2.9C64.3,5.9,64.8,8.9,65.8,10z"/>
	<path class="st1" d="M74.3,10.2c-2.5,0.5-3,1.2-5.4,2.3c-0.6,0.3-1.1,0.6-1.5,1c-0.1,0.1-0.2,0.2-0.4,0.4c-1.9,1.4,1.4,3.2,1.9,4.5
		c0.1,0.2-2.1,2.3-2.1,2.3c-1.3-0.4-6,4.2-6,4.2c-0.6,0.2-4.2,1.8-5.5,2.8c-5.1,4-9,8.4-10.1,15.2c-1.6,9.4-6.6,17.8-6.7,27.7
		c0,4.7,0.6,9.4,0.3,14.1c-0.1,1.1,0.6,2.8-0.7,3.1c-5,1.1-2.7,4.1-1.9,6.5c0.7,1.9,0.7,3.3-1.6,3.1c-4.3-0.4-8.5-1.1-12.8-1.7
		c0.7-1.1,1.4-1.5,2.2-1.7c6.6-1.5,6.5-1.5,5.8-8.2c-1-9.9-4.1-19.6-2-29.6c0.1-0.5-0.2-1.1-0.3-1.7c-1.3-1.6-1.6-3.3-1-5.3
		c0.1-1,0.3-2,0.2-3c-0.1-1.6,1.4-4-0.8-4.5c-2.8-0.7-1.3,2.5-2.2,3.7c-0.5,0.6-0.6,1.6-0.8,2.4c-0.8,3.8-3.6,7.4-0.8,11.4
		c0.5,0.8-0.2,1.4-0.9,1.6c-0.9,0.3-1.2-0.5-1.5-1.1c-1.4-2.9-2.3-5.8-1-9.1c1.1-2.8,1.7-5.7,2.6-8.6c0.8-2-0.3-3-2.4-3
		c-2.8,0-5.7,0-8.4,1.4c-2.2,1.1-4.6,0.9-5.7-1.2c-1.1-2.1-2.6-3.7-3.8-5.7c-1.5-2.6-2.1-4.5,1.8-5c1.1-0.1,2-0.7,2.2-2.2
		c0.4-2,1.8-3.5,3.9-2.4c1.7,0.9,2,2.6,0.4,4.3c-0.8,0.8-0.9,2-0.4,3.1c4.5-3.5,5.5-8.7,2.4-13.2c-0.6-1-1.4-1.9-1.7-3
		C9.2,12.7,9.1,10,11,7.9c1.4-1.6,3.3-1.8,5.1-1.2c2.6,0.9,3.7,2.9,3.9,5.6c0,0.7-0.8,2.2,1,2c3.5-0.3,7.2,0.9,10.6-0.2
		c3.4-1.2,6.8-1,10.2-0.4c2.2,0.4,4,1,5.4-1.7c0.8-1.7,2.8-0.9,4.2,0c1.4,0.8,1.4,2,0.5,3.3c-0.4,0.6-1.5,1.1-0.5,2.4
		c2-0.7,9.9-6.8,9.9-6.8c0.3,0,2.7-2.1,3.1-2.8C66.8,3.5,75,4.3,77,6.3C78.5,7.7,77.1,9.7,74.3,10.2z"/>
</g>
</svg>
