<?xml version="1.0" encoding="utf-8"?>
<!-- Generator: Adobe Illustrator 23.0.0, SVG Export Plug-In . SVG Version: 6.00 Build 0)  -->
<svg version="1.1" id="Capa_1" xmlns="http://www.w3.org/2000/svg" xmlns:xlink="http://www.w3.org/1999/xlink" x="0px" y="0px"
	 viewBox="0 0 110.1 99" style="enable-background:new 0 0 110.1 99;" xml:space="preserve">
<style type="text/css">
	.st0{fill:#3280FF;}
</style>
<path class="st0" d="M93.3,91.6c1.2,3.2,4.3,4.2,6.7,6.7c-4.5,1.7-8.1-0.9-11.9-0.8c-1.5,0.1-1.1-1.8-1.2-3
	c-0.3-6.6-0.8-13.3-1.1-19.9c-0.1-1.1,0-2.4-1.5-2.2C79,73,75,69.1,70,68.2c-1.6-0.3-2.8-0.4-4.3,0.1c-4.1,1.3-8.6,2.3-12,4.3
	c-4,2.3-8.6,4.5-11.7,8.4c-3.1,3.9-6.7,7.4-10.1,11.2c-3.6,4.1-6.9,5-11.9,2.7c-1.5-0.7-2.3-0.2-3.1,0.7c-1,1.1-2.2,1.6-3.6,1.8
	c-1.1,0.2-2.2,0.3-2.9-0.8c-0.8-1.1,0-2.2,0.8-2.8c8-5.1,12-14.3,19.4-19.4c6.5-4.5,10.9-10.5,16.1-16c2.8-3,2.1-7.7,5.7-10.2
	c1.1-0.7-0.2-1.9-0.5-2.8c-1.1-3.1-2.7-6.1-2.4-9.6c0.3-2.7-1.1-3.8-3.7-4c-4.1-0.4-8.1-1.4-12.1-1.7c-6.2-0.5-10-4.6-13.9-8.6
	c-3.2-3.3-2.1-7.7-2.1-11.7c0-0.8,0.4-1.7,1.3-1.5c1,0.2,2.2,0.7,2.7,1.5c1.5,2.4,3.4,4.8,3.8,7.4c0.4,2.8,1.7,2.8,3.7,3.1
	c8.6,1.4,17,0.2,25.3-1.4c2.1-0.4,4.3-2.1,3.5-5.4c-0.6-2.4-0.6-5.1-0.9-7.6c-0.6-4.2,1.6-5.8,5.4-6c4.1-0.2,7.5,1.9,6.9,5.3
	c-1.6,8.3-1,15.3,6.3,20.8c1.6,1.2,1.6,3.9,1,5.6c-1.3,3.4-0.3,6.5,0.2,9.7c0.3,1.6-0.4,3.9,2.7,3.2c1.1-0.2,1.5,0.7,1.3,1.8
	c-0.3,1.5-0.5,3-2.5,3.3c-1.3,0.2-3.5-0.6-3.5,1.8c0,2.4,2.3,2,3.7,2.4c5.6,1.9,10.5,5.3,15.8,8c2.2,1.1,2.8,3.2,2.9,5.4
	c0.2,7,0.2,14,0.6,21C98.1,92.4,95.2,90.7,93.3,91.6z"/>
</svg>
