<?xml version="1.0" encoding="utf-8"?>
<!-- Generator: Adobe Illustrator 23.0.0, SVG Export Plug-In . SVG Version: 6.00 Build 0)  -->
<svg version="1.1" id="Capa_1" xmlns="http://www.w3.org/2000/svg" xmlns:xlink="http://www.w3.org/1999/xlink" x="0px" y="0px"
	 viewBox="0 0 110.1 99" style="enable-background:new 0 0 110.1 99;" xml:space="preserve">
<style type="text/css">
	.st0{fill:#3280FF;}
</style>
<path class="st0" d="M84.1,43C79.6,33.9,73.9,26.3,64,22.6c-2.5-0.9-3.6-2.8-2.6-5.3c1-2.8,2.1-5.3,2.1-8.5c0-2.3,0.9-4.8-1.2-6.3
	c-2.7-1.9-5.7-3.5-9.2-1.9c-2.3,1-4.8,2.6-4.5,5.1c0.4,3.6-1,7.4,1.8,10.9c1.9,2.4,0.5,5-2.5,5.8c-2.1,0.6-4.3,1.1-6.1,2.5
	C36,29.4,31,34.8,27.3,41.2c-2.1,3.6-4.2,7.4-2.5,11.9c0.2,0.6,0.1,1.5-0.1,2.1c-1,2.1,0.1,2.9,1.9,2.8c2-0.1,2.9,0.9,3.8,2.3
	c2.2,3.6,4.3,7.2,6.6,10.7c0.6,0.9,0,1.4-0.4,2.1c-3.5,5.9-6,12.2-7.3,18.9c-0.1,0.7-0.2,1.3,0.2,2c1.8,3.1,5.6,4.8,9.3,4.1
	c3.2-0.6,5.7-2.8,8.9-3.6c0.9-0.2,0.9-1.2,0.7-2.1s-0.5-1.7-0.7-2.6c-0.2-1.7-0.2-2.8,2.3-2.4c2.7,0.4,5.6,0.1,9.6,0.1
	c2.5-1,1.4,1.6,1.5,3.4c0,1.3-1,2.8,0.7,3.8c2,1.1,3.9,2.5,6,3.5c5.4,2.6,10.8-0.8,10.6-6.7c-0.2-5-2-9.5-4.5-13.8
	c-1.2-2-0.1-4.6-2.1-6.4c-0.1-0.1,0.3-0.7,0.5-1c2.3-3.3,4.5-6.6,7.1-9.7c1-1.1,1.9-2,3.5-1.7c1.7,0.3,2.2-0.6,2.5-2.1
	C86.1,52.1,86.4,47.7,84.1,43z M41,50.4c-0.6,2.2-0.2,4.3-0.2,6.5c0,3.5,0.2,3.5-2.5,6c-2.3-2.8-3.3-6.1-3.9-9.5
	c-0.1-0.6-0.4-1.3,0.2-1.6c2.6-1.6,2.7-4.2,2.9-6.8c0.1-1.4,1-2.3,2.2-3.2C41.1,44.5,41.8,47.5,41,50.4z M76,53.9
	c-1.1,3-2,6-4.3,8.5c-0.6,0.7-1.5,1.5-2.3,0.7c-0.7-0.7-1.9-1.9-1.3-2.7c3.7-4.7,0.9-10.2,1.8-15.2c0.2-1.2,0.1-2.5,1.2-3.7
	c1.1,2,2.7,3.5,2.6,5.9c0,0.8,0.4,1.5,1,1.7C77.2,50.2,76.6,52,76,53.9z"/>
</svg>
