<?xml version="1.0" encoding="utf-8"?>
<!-- Generator: Adobe Illustrator 23.0.0, SVG Export Plug-In . SVG Version: 6.00 Build 0)  -->
<svg version="1.1" id="Capa_1" xmlns="http://www.w3.org/2000/svg" xmlns:xlink="http://www.w3.org/1999/xlink" x="0px" y="0px"
	 viewBox="0 0 110.1 99" style="enable-background:new 0 0 110.1 99;" xml:space="preserve">
<style type="text/css">
	.st0{fill:#FF1746;}
</style>
<path class="st0" d="M60.6,66.6c-1,1.7,0,3.5-1.3,4.9c-1.9-1-1.2-3-1.4-4.4c-0.3-1.8-1.5-1.7-2.8-1.8c-1.3-0.1-1.9,0.5-2.1,1.9
	c-0.1,1.3,0.7,3.5-1,3.6c-2.6,0.1-0.7-2.9-2.2-4.2c-5.5,2-9.4,6.5-13.6,10.4c-4.7,4.4-10.2,8.2-13,14.3c-1.3,2.9-4.8,3.2-6.4,5.5
	c-2.4,3.6-5.5,1.5-9.2,1.9c8.5-8.5,9-20.3,15.5-29.1C26.9,64.4,31,59.5,36.5,56c1.7-1.1,3.4-2.1,4.7-3.8c1.7-2.3,2.5-3.9-0.2-6.5
	c-3.9-3.8-3.5-9.5-2.6-14.1c1.2-6,2.5-12.7,11-13.7c2.6-0.3,4.5-2.9,2-6.5C48.7,7.6,52,0.6,56.2,0.2c2.2-0.2,4.2,0.5,5.2,2.4
	c1.5,2.8,2.3,6,0.7,8.9c-0.7,1.3-1.4,2.4-1.4,3.8c0,1,0.4,1.9,1.3,2.3c1.7,0.8,0.9-1,1.4-1.5C65,14.7,67,15,68.6,16
	c2.6,1.5,3.6,8.9,1.7,11.4c-3.6,4.7-3.4,10.6-5.1,15.9c-0.2,0.5,0.1,1.4,0.4,1.8c3.8,4,5.4,9.5,10.3,12.9
	c11.4,7.8,19,18.7,22.6,32.2c0.5,1.7,1.7,3.3,2.7,4.9c0.5,0.9,1.9,1.6,0.9,2.8c-1,1.2-2.6,0.7-4,0.8c-1.6,0.1-1.7-0.9-1.7-2.1
	c-0.1-2.3-1.1-3.3-3.6-2.6c-2.5,0.7-3.6-1.4-4.6-3.2C81.5,79.8,72.1,72.2,60.6,66.6z"/>
</svg>
