<?xml version="1.0" encoding="utf-8"?>
<!-- Generator: Adobe Illustrator 23.0.0, SVG Export Plug-In . SVG Version: 6.00 Build 0)  -->
<svg version="1.1" id="Capa_1" xmlns="http://www.w3.org/2000/svg" xmlns:xlink="http://www.w3.org/1999/xlink" x="0px" y="0px"
	 viewBox="0 0 110.1 99.2" style="enable-background:new 0 0 110.1 99.2;" xml:space="preserve">
<style type="text/css">
	.st0{fill:#FF1746;}
</style>
<path class="st0" d="M88.8,91.4c-2.5-3.1-3.5-6.5-3.8-10.4c-0.3-3.6-1.5-7.1-4-9.9c-4.2-4.8-8.6-9.5-12.9-14.2
	c-1.6-1.7-4.5-3.1-0.4-5.3c1.2-0.6,0.5-1.9,0.1-3c-1.4-4.3-1-8.2,1.3-12.3c2.1-3.7,3.1-8,4.3-12.1c0.8-2.6,0.1-5-1.8-7.4
	C68.4,12.6,64.3,9,61.5,4.2c-1.6-2.8-4.2-4.3-7.8-4c-2.2-0.3-3.9,0.8-5.3,2.4C45,6.7,41.6,10.9,38,14.9s-3.8,7.8-1.7,12.9
	c2.9,6.9,9.4,12.9,7.2,21.5c-0.1,0.4,0.4,1,0.8,1.4c1.3,1.7,0.6,2.8-0.5,4.4c-3.9,5.6-8.3,10.8-12.9,15.9c-2.2,2.4-3.5,5.5-4.6,8.7
	c-1.6,4.9-0.5,10.7-5,14.7c-1.1,0.9-2.4,2.3-0.5,3.8s3.6,0.7,4.6-1c0.8-1.4,1.4-2.4,3.3-2.4c1.7,0.1,2.6-1.4,3.4-2.8
	c4.3-7.4,7.6-15.6,15.1-20.9c2.8-2,9.7-4.3,12.6-2.5c10.3,6.5,18.9,14.4,24.7,25c1.1,2,2.6,2.8,4.4,1.9
	C91.3,94.5,89.7,92.6,88.8,91.4z M53.8,4c1.4,1.7,4.2,2.8,2.6,5.3c-0.7,1.2-2.5,1.3-3.7,0.3C49.6,7.2,54.1,6.1,53.8,4z M60.4,29.3
	c-0.6,0.2-1,0.4-1.4-0.2c-0.8-1.1-1-2.7-0.2-3.5c2.3-2.5,1.1-4.9,0.4-7.4c-0.6-2.2-2.3-3-4.5-3c-2,0-3.7,0.9-4.1,2.8
	c-0.5,2.3-1.9,4.6-0.1,7.1c0.7,1,0.9,2.7-0.4,3.8c-1.5,1.2-2.2-0.5-3.1-1c-3.7-2.1-4.7-5.2-2.9-9.2c0.4-1,0.5-2.1,0.8-3.2
	c0.7-2.9,2.2-4.8,6.4-4.1c1.4,0.6,3.7,0.2,6.1,0.1c2.8,0,5.5,0.4,5.5,4.4c0,1.5,1.2,3.1,1.7,4.7C65.8,24.5,64,28,60.4,29.3z"/>
</svg>
